PathFileType	4	(X/Y/Z)	TVC_26_BWA1_walk_RCNL2025.trc
DataRate	CameraRate	NumFrames	NumMarkers	Units	OrigDataRate	OrigDataStartFrame	OrigNumFrames
100	100	8	27	mm	100	274	728
Frame#	Time	R_Shoulder			L_Shoulder			C7			J_Notch			R_Elbow			L_Elbow			R_Wrist			L_Wrist			R_Asis			L_Asis			R_Psis			L_Psis			Sacral			Thoracic			Sternum			R_Thigh_Lateral			R_Knee_Lateral			R_Shank_Lateral			R_Ankle_Lateral			R_Heel			R_Toe			L_Thigh_Lateral			L_Knee_Lateral			L_Shank_Lateral			L_Ankle_Lateral			L_Heel			L_Toe		
		X1	Y1	Z1	X2	Y2	Z2	X3	Y3	Z3	X4	Y4	Z4	X5	Y5	Z5	X6	Y6	Z6	X7	Y7	Z7	X8	Y8	Z8	X9	Y9	Z9	X10	Y10	Z10	X11	Y11	Z11	X12	Y12	Z12	X13	Y13	Z13	X14	Y14	Z14	X15	Y15	Z15	X16	Y16	Z16	X17	Y17	Z17	X18	Y18	Z18	X19	Y19	Z19	X20	Y20	Z20	X21	Y21	Z21	X22	Y22	Z22	X23	Y23	Z23	X24	Y24	Z24	X25	Y25	Z25	X26	Y26	Z26	X27	Y27	Z27
274	2.73000000	-947.609314	1346.069702	191.779861	-945.686035	1362.404297	-127.303146	-1023.685608	1392.813843	40.163582	-877.066467	1292.737183	41.415310	-936.365845	1007.202026	313.627777	-977.282349	1032.338989	-229.039139	-824.210419	826.421600	343.012848	-893.818237	829.623352	-206.677971	-875.926758	954.145813	202.139114	-849.954712	943.366943	-91.115669	-1081.508667	940.078186	104.590866	-1061.148804	931.893799	-40.111240	-1071.328735	935.985992	32.239813	-1076.223999	1118.898315	19.649923	-821.746033	1061.604736	29.769924	-842.396118	573.632446	248.725601	-791.337463	455.994141	192.466888	-822.962830	275.488708	237.585464	-852.034790	77.049568	175.432678	-896.054749	56.282028	125.392677	-715.928467	45.850548	166.279282	-877.970642	571.746460	-126.502731	-937.944702	454.559052	-69.427109	-1026.775635	254.086487	-113.434685	-1123.400757	79.898117	-45.721348	-1171.984375	71.953270	8.028767	-993.618958	42.004501	-43.336346
275	2.74000000	-944.276550	1346.574707	193.071365	-941.358215	1362.660767	-125.984451	-1019.902344	1393.076294	41.209789	-873.166748	1293.227661	42.985905	-932.006165	1007.721191	314.962616	-972.169434	1032.641846	-227.976913	-817.964355	828.063477	343.853287	-889.290253	830.195526	-205.248009	-871.854370	954.777893	203.809464	-845.616821	943.411194	-89.239731	-1077.378174	940.388306	106.403030	-1056.918457	931.933594	-38.337746	-1067.148315	936.160950	34.032642	-1072.020142	1119.388184	21.518372	-817.562134	1062.108765	31.720501	-840.796753	573.272583	250.026657	-789.538757	455.626892	193.467987	-821.226013	274.963287	238.086029	-851.908386	76.873886	175.636276	-896.003540	56.343441	125.526970	-715.875549	45.828281	166.242477	-873.849365	572.047607	-124.904984	-933.956909	454.683228	-68.246140	-1024.688354	255.084351	-112.576324	-1122.659180	81.463615	-45.113411	-1171.126465	73.933586	8.808455	-993.439209	42.053959	-43.267151
276	2.75000000	-940.961365	1347.156616	194.362228	-937.084961	1362.930176	-124.665352	-1016.150330	1393.383545	42.254517	-869.304016	1293.751587	44.557076	-927.630432	1008.318542	316.309998	-967.093201	1032.947021	-226.873260	-811.660675	829.832703	344.668365	-884.771637	830.781128	-203.765556	-867.849121	955.394653	205.516296	-841.335938	943.579590	-87.363670	-1073.295166	940.736511	108.255051	-1052.765259	932.048401	-36.525349	-1063.030212	936.392456	35.864851	-1067.883301	1119.910645	23.438372	-813.444702	1062.646606	33.723534	-839.074768	572.964966	251.257339	-787.853699	455.281097	194.384933	-819.572144	274.464233	238.537491	-851.781982	76.693184	175.842224	-895.939514	56.404411	125.662521	-715.806763	45.790573	166.170517	-869.574280	572.475220	-123.376411	-929.584961	454.852112	-67.145683	-1022.402710	256.236633	-111.795532	-1121.784424	83.245117	-44.567173	-1170.148193	76.193176	9.527416	-993.227112	42.080173	-43.184792
277	2.76000000	-937.661682	1347.815552	195.652176	-932.869385	1363.212280	-123.346634	-1012.430054	1393.734741	43.298504	-865.478638	1294.307739	46.126770	-923.235779	1008.993652	317.667908	-962.061584	1033.253906	-225.725235	-805.304749	831.726440	345.455780	-880.268463	831.373840	-202.230949	-863.920105	956.004333	207.271179	-837.109680	943.876831	-85.479370	-1069.262329	941.126831	110.136070	-1048.689575	932.238770	-34.683163	-1058.975952	936.682800	37.726454	-1063.814819	1120.465210	25.408798	-809.395203	1063.218018	35.778214	-837.175110	572.724487	252.426300	-786.291992	454.960175	195.224503	-818.052002	273.996399	238.949585	-851.659912	76.513878	176.047440	-895.873596	56.474022	125.794395	-715.720093	45.733494	166.067429	-865.091614	573.025330	-121.908974	-924.786926	455.065277	-66.139305	-1019.866760	257.550140	-111.112076	-1120.752197	85.269981	-44.111717	-1169.034790	78.775642	10.143016	-992.983521	42.076897	-43.085960
278	2.77000000	-934.375427	1348.550293	196.940811	-928.713989	1363.506836	-122.029198	-1008.741211	1394.129028	44.342365	-861.690491	1294.894531	47.692833	-918.819519	1009.745178	319.034363	-957.082031	1033.561523	-224.530594	-798.901611	833.741516	346.213181	-875.779663	831.971405	-200.651016	-860.075012	956.614319	209.083923	-832.936890	944.303467	-83.578918	-1065.282471	941.562988	112.035278	-1044.691040	932.503784	-32.820679	-1054.986755	937.033386	39.607300	-1059.815308	1121.050659	27.427378	-805.414001	1063.822021	37.882549	-835.100342	572.554504	253.540039	-784.864563	454.666748	195.998077	-816.714111	273.563690	239.334824	-851.548157	76.341621	176.249054	-895.818542	56.560375	125.918304	-715.617798	45.656128	165.939880	-860.344971	573.691895	-120.499641	-919.520752	455.320404	-65.240768	-1017.018860	259.023987	-110.542488	-1119.536011	87.566628	-43.773197	-1167.765747	81.726112	10.616843	-992.712219	42.039978	-42.966854
279	2.78000000	-931.100159	1349.358276	198.227463	-924.620117	1363.813721	-120.714165	-1005.083191	1394.564575	45.386539	-857.938965	1295.510132	49.253006	-914.379700	1010.570618	320.407440	-952.161682	1033.869263	-223.287827	-792.455597	835.874115	346.938293	-871.294098	832.574890	-199.040489	-856.319641	957.230774	210.961456	-828.817871	944.855774	-81.655403	-1061.357666	942.047974	113.942162	-1040.769165	932.841187	-30.947573	-1051.063416	937.444580	41.497294	-1055.884399	1121.664917	29.490498	-801.500854	1064.456665	40.033146	-832.904602	572.448669	254.603653	-783.582703	454.402527	196.720474	-815.599854	273.168854	239.707611	-851.453064	76.180412	176.445084	-895.786743	56.668854	126.031509	-715.505676	45.560219	165.796906	-855.281677	574.467773	-119.152519	-913.746765	455.613586	-64.463295	-1013.790039	260.648865	-110.097275	-1118.107178	90.163048	-43.572502	-1166.313721	85.088005	10.918793	-992.419434	41.968525	-42.823826
280	2.79000000	-927.833374	1350.235474	199.511185	-920.588379	1364.132202	-119.402870	-1001.454773	1395.039429	46.431232	-854.223022	1296.151855	50.804882	-909.914551	1011.466553	321.785126	-947.307007	1034.176270	-221.996277	-785.970642	838.119812	347.628784	-866.790009	833.187225	-197.421677	-852.657349	957.857483	212.906876	-824.754639	945.525391	-79.703621	-1057.490723	942.584045	115.846535	-1036.923340	933.247620	-29.073519	-1047.207031	937.915833	43.386508	-1052.021240	1122.304932	31.593048	-797.654785	1065.119141	42.225048	-830.679077	572.394104	255.622635	-782.456421	454.168243	197.408600	-814.739746	272.813080	240.083069	-851.379944	76.031990	176.634506	-895.787903	56.801201	126.133301	-715.391724	45.449688	165.649307	-849.858093	575.343994	-117.879402	-907.430969	455.939514	-63.818695	-1010.108521	262.407288	-109.779419	-1116.435547	93.084396	-43.523201	-1164.644775	88.898872	11.030367	-992.111938	41.866051	-42.654598
281	2.80000000	-924.572388	1351.176025	200.790756	-916.618225	1364.461670	-118.096893	-997.854187	1395.550537	47.476376	-850.541077	1296.816895	52.345913	-905.423035	1012.428406	323.165405	-942.524048	1034.481323	-220.656235	-779.450226	840.473724	348.282486	-862.238281	833.811798	-195.820976	-849.089172	958.495911	214.918701	-820.750977	946.299988	-77.720657	-1053.684326	943.172302	117.738670	-1033.152710	933.718506	-27.208008	-1043.418518	938.445404	45.265331	-1048.224121	1122.966919	33.728317	-793.874146	1065.805420	44.451603	-828.533203	572.375305	256.604584	-781.493225	453.963593	198.079803	-814.149902	272.495819	240.475677	-851.332458	75.896004	176.817291	-895.828552	56.955746	126.224731	-715.284729	45.329956	165.508606	-844.043091	576.310425	-116.698677	-900.548340	456.292114	-63.316414	-1005.904541	264.274628	-109.584007	-1114.489868	96.349884	-43.629993	-1162.718140	93.185585	10.946810	-991.794617	41.741261	-42.459606
